<?xml version="1.0" encoding="UTF-8" standalone="no"?>
<!-- Created with Inkscape (http://www.inkscape.org/) -->

<svg
   xmlns:dc="http://purl.org/dc/elements/1.1/"
   xmlns:cc="http://creativecommons.org/ns#"
   xmlns:rdf="http://www.w3.org/1999/02/22-rdf-syntax-ns#"
   xmlns:svg="http://www.w3.org/2000/svg"
   xmlns="http://www.w3.org/2000/svg"
   xmlns:sodipodi="http://sodipodi.sourceforge.net/DTD/sodipodi-0.dtd"
   xmlns:inkscape="http://www.inkscape.org/namespaces/inkscape"
   width="84.582184mm"
   height="53.518059mm"
   viewBox="0 0 84.582182 53.518057"
   version="1.1"
   id="svg3898"
   inkscape:version="0.92.3 (2405546, 2018-03-11)"
   sodipodi:docname="TagTO_logo_tight.svg">
  <defs
     id="defs3892">
    <clipPath
       clipPathUnits="userSpaceOnUse"
       id="clipPath3949">
      <rect
         style="opacity:0.49660022;fill:#000000"
         id="rect3951"
         width="382.85715"
         height="382.85715"
         x="305.05078"
         y="88.989853" />
    </clipPath>
    <clipPath
       clipPathUnits="userSpaceOnUse"
       id="clipPath3955">
      <rect
         style="opacity:0.49660022;fill:#000000"
         id="rect3957"
         width="319.68069"
         height="202.27298"
         x="338.58438"
         y="178.85971" />
    </clipPath>
  </defs>
  <sodipodi:namedview
     id="base"
     pagecolor="#ffffff"
     bordercolor="#666666"
     borderopacity="1.0"
     inkscape:pageopacity="0.0"
     inkscape:pageshadow="2"
     inkscape:zoom="2.8"
     inkscape:cx="175.70135"
     inkscape:cy="106.68182"
     inkscape:document-units="mm"
     inkscape:current-layer="g3935"
     showgrid="false"
     inkscape:window-width="1920"
     inkscape:window-height="1013"
     inkscape:window-x="-9"
     inkscape:window-y="-9"
     inkscape:window-maximized="1"
     fit-margin-top="0"
     fit-margin-left="0"
     fit-margin-right="0"
     fit-margin-bottom="0" />
  <metadata
     id="metadata3895">
    <rdf:RDF>
      <cc:Work
         rdf:about="">
        <dc:format>image/svg+xml</dc:format>
        <dc:type
           rdf:resource="http://purl.org/dc/dcmitype/StillImage" />
        <dc:title></dc:title>
      </cc:Work>
    </rdf:RDF>
  </metadata>
  <g
     inkscape:label="Layer 1"
     inkscape:groupmode="layer"
     id="layer1"
     transform="translate(-59.345685,-127.74294)">
    <g
       style="fill:none;stroke:none;stroke-linecap:square;stroke-miterlimit:10"
       id="g3935"
       transform="matrix(0.26458333,0,0,0.26458333,-22.678574,78.151786)">
      <g
         id="g3917"
         clip-path="url(#clipPath3955)"
         transform="translate(-28.571429,8.5714288)">
        <path
           id="path3903"
           d="M 0,0 H 960 V 540 H 0 Z"
           inkscape:connector-curvature="0"
           style="fill:#000000;fill-opacity:0;fill-rule:evenodd" />
        <path
           id="path3905"
           d="M 111.558,54.941315 H 891.6525 V 371.69723 H 111.558 Z"
           inkscape:connector-curvature="0"
           style="fill:#000000;fill-opacity:0;fill-rule:evenodd" />
        <path
           id="path3907"
           d="m 450.53748,201.79721 h -42.10937 v 114.5 h -28.3125 v -114.5 h -41.53125 v -22.9375 h 111.95312 z m 73.54041,114.5 q -1.89063,-3.6875 -2.75,-9.15625 -9.90625,11.04687 -25.76563,11.04687 -15.01562,0 -24.875,-8.6875 -9.85937,-8.6875 -9.85937,-21.90625 0,-16.23437 12.03125,-24.90625 12.03125,-8.6875 34.78125,-8.78125 h 12.5625 v -5.85937 q 0,-7.07813 -3.64063,-11.32813 -3.625,-4.25 -11.46875,-4.25 -6.89062,0 -10.8125,3.3125 -3.90625,3.29688 -3.90625,9.0625 h -27.28125 q 0,-8.875 5.46875,-16.42187 5.48438,-7.5625 15.48438,-11.85938 10,-4.29687 22.46875,-4.29687 18.875,0 29.96875,9.5 11.09375,9.48437 11.09375,26.65625 v 44.28125 q 0.0937,14.53125 4.0625,21.98437 v 1.60938 z m -22.5625,-18.96875 q 6.03125,0 11.125,-2.6875 5.10937,-2.70313 7.5625,-7.23438 v -17.54687 h -10.20313 q -20.48437,0 -21.79687,14.15625 l -0.0937,1.60937 q 0,5.09375 3.57812,8.40625 3.59375,3.29688 9.82813,3.29688 z m 63.05578,-32.85938 q 0,-23.5 11.1875,-37.84375 11.1875,-14.35937 30.15625,-14.35937 16.79688,0 26.15625,11.51562 l 1.125,-9.625 h 24.73438 v 98.75 q 0,13.39063 -6.09375,23.29688 -6.07813,9.92187 -17.125,15.10937 -11.04688,5.20313 -25.875,5.20313 -11.23438,0 -21.90625,-4.48438 -10.65625,-4.48437 -16.125,-11.5625 l 12.07812,-16.625 q 10.1875,11.42188 24.73438,11.42188 10.85937,0 16.89062,-5.8125 6.04688,-5.79688 6.04688,-16.45313 v -5.48437 q -9.4375,10.67187 -24.82813,10.67187 -18.40625,0 -29.78125,-14.39062 -11.375,-14.40625 -11.375,-38.1875 z m 27.28125,1.98438 q 0,13.875 5.5625,21.76562 5.57813,7.875 15.29688,7.875 12.46875,0 17.84375,-9.34375 v -42.95312 q -5.48438,-9.34375 -17.65625,-9.34375 -9.8125,0 -15.4375,8.03125 -5.60938,8.01562 -5.60938,23.96875 z"
           inkscape:connector-curvature="0"
           style="fill:#000000;fill-rule:nonzero" />
        <path
           id="path3909"
           d="m 445.01584,327.23096 h 121.44882 v 78.04727 H 445.01584 Z"
           inkscape:connector-curvature="0"
           style="fill:#000000;fill-opacity:0;fill-rule:evenodd" />
        <path
           id="path3911"
           d="m 493.9221,340.79382 h -14.51563 v 39.48437 h -9.76562 v -39.48437 h -14.32813 v -7.90625 h 38.60938 z m 44.48703,16.85937 q 0,7 -2.48438,12.28125 -2.46875,5.26563 -7.07812,8.14063 -4.59375,2.85937 -10.54688,2.85937 -5.89062,0 -10.51562,-2.82812 -4.625,-2.84375 -7.17188,-8.09375 -2.53125,-5.26563 -2.5625,-12.09375 v -2.34375 q 0,-7 2.51563,-12.3125 2.53125,-5.32813 7.125,-8.17188 4.60937,-2.85937 10.53125,-2.85937 5.9375,0 10.53125,2.85937 4.60937,2.84375 7.125,8.17188 2.53125,5.3125 2.53125,12.28125 z m -9.89063,-2.14062 q 0,-7.45313 -2.67187,-11.32813 -2.67188,-3.875 -7.60938,-3.875 -4.92187,0 -7.59375,3.82813 -2.67187,3.82812 -2.70312,11.20312 v 2.3125 q 0,7.26563 2.67187,11.26563 2.67188,4 7.6875,4 4.90625,0 7.54688,-3.84375 2.64062,-3.85938 2.67187,-11.25 z"
           inkscape:connector-curvature="0"
           style="fill:#000000;fill-rule:nonzero" />
        <path
           id="path3913"
           d="m 355.76642,221.96063 v 116.44882 c 0,13.97235 11.32684,25.29919 25.29919,25.29919 h 18.07087 v 7.22837 l 14.45669,-14.4567 -14.45669,-14.4567 v 7.22837 h -18.07087 v 0 c -5.98816,0 -10.84253,-4.85437 -10.84253,-10.84253 V 221.96063 Z"
           inkscape:connector-curvature="0"
           style="fill:#000000;fill-rule:evenodd" />
        <path
           id="path3915"
           d="m 355.76642,221.96063 v 116.44882 c 0,13.97235 11.32684,25.29919 25.29919,25.29919 h 18.07087 v 7.22837 l 14.45669,-14.4567 -14.45669,-14.4567 v 7.22837 h -18.07087 v 0 c -5.98816,0 -10.84253,-4.85437 -10.84253,-10.84253 V 221.96063 Z"
           inkscape:connector-curvature="0"
           style="fill-rule:evenodd;stroke:#000000;stroke-width:1;stroke-linecap:butt;stroke-linejoin:round" />
      </g>
    </g>
  </g>
</svg>
